<?xml version="1.0" encoding="UTF-8" standalone="no"?>
<svg
   xmlns:dc="http://purl.org/dc/elements/1.1/"
   xmlns:cc="http://creativecommons.org/ns#"
   xmlns:rdf="http://www.w3.org/1999/02/22-rdf-syntax-ns#"
   xmlns:svg="http://www.w3.org/2000/svg"
   xmlns="http://www.w3.org/2000/svg"
   viewBox="0 0 493.88 122.98667"
   height="122.98667"
   width="493.88"
   xml:space="preserve"
   id="svg2"
   version="1.1"><metadata
     id="metadata8"><rdf:RDF><cc:Work
         rdf:about=""><dc:format>image/svg+xml</dc:format><dc:type
           rdf:resource="http://purl.org/dc/dcmitype/StillImage" /></cc:Work></rdf:RDF></metadata><defs
     id="defs6" /><g
     transform="matrix(1.3333333,0,0,-1.3333333,0,122.98667)"
     id="g10"><g
       transform="scale(0.1)"
       id="g12"><path
         id="path14"
         style="fill:#1b387b;fill-opacity:1;fill-rule:nonzero;stroke:none"
         d="m 998.258,885.641 h 223.452 c 12.35,0 23.56,3.367 38.11,9.214 -0.56,-16.285 -1.41,-28.64 -1.41,-40.992 0,-11.23 0.85,-22.461 1.41,-33.914 h -21.27 c -8.42,26.395 -27.5,38.746 -57.8,38.746 h -79.69 c -0.56,-46.043 -1.12,-96.015 -1.68,-148.882 h 78.64 c 21.35,0 41.57,6.167 44.94,30.285 h 17.72 c -0.55,-16.266 -1.41,-31.969 -1.41,-48.246 0,-14.047 0.86,-28.676 1.41,-42.735 h -17.72 c -6.18,26.438 -23.04,33.754 -44.94,33.754 h -78.64 c 0,-45.012 -0.56,-93.953 -0.56,-142.336 0,-19.129 13.48,-32.066 34.82,-32.066 v -12.051 c -21.34,0 -42.13,2.129 -63.48,2.129 -21.35,0 -41.58,-2.129 -62.91,-2.129 v 12.051 c 22.46,3.941 31.44,12.937 31.44,36.57 v 113.074 c 0,67.403 -7.86,150.41 -7.86,184.621 0,19.075 -13.48,26.364 -32.572,30.852 v 12.055" /><path
         id="path16"
         style="fill:#1b387b;fill-opacity:1;fill-rule:nonzero;stroke:none"
         d="m 1385.66,810.465 c -17.16,-2.793 -19.02,-14.867 -19.02,-31.117 0,-45.043 -1.85,-99.832 -1.85,-149.043 v -90.082 c 0,-15.321 5.1,-32.965 22.73,-33.426 v -10.215 c -15.78,0 -32.02,1.836 -47.78,1.836 -16.24,0 -32.01,-1.836 -47.79,-1.836 v 10.215 c 14.85,0.461 23.21,13.457 23.21,33.426 v 66.863 c 0,55.719 -4.18,137.434 -4.18,166.687 0,19.04 -1.86,34.364 -20.89,36.692 v 10.211 c 15.78,0 31.56,-1.832 47.79,-1.832 15.77,0 32.01,1.832 47.78,1.832 v -10.211" /><path
         id="path18"
         style="fill:#1b387b;fill-opacity:1;fill-rule:nonzero;stroke:none"
         d="m 1428.02,496.582 c 16.71,0 32.48,1.836 49.17,1.836 16.7,0 33,-1.836 49.8,-1.836 v 10.215 c -23.81,5.09 -26.14,18.996 -26.14,38.465 v 91.773 c 11.2,0 21,-12.055 28,-19.93 l 77.44,-89.917 c 5.57,-6.485 6.96,-10.665 6.96,-14.836 -0.46,-3.243 -1.85,-5.094 -5.1,-5.555 v -10.215 c 15.31,0 30.62,1.836 45.94,1.836 15.31,0 31.09,-1.836 46.4,-1.836 v 10.215 c -12.53,2.312 -28.3,17.605 -35.27,25.957 l -93.89,108.422 c 40.02,0 94.15,40.402 94.15,87.41 0,50.266 -24.17,92.113 -134.76,92.113 -34.97,0 -48.89,-1.883 -62.8,-1.883 -14.84,0 -30.16,1.883 -45,1.883 v -10.234 c 23.66,-4.656 25.98,-16.262 25.98,-38.082 0,-39.469 2.32,-79.399 2.32,-119.332 V 533.719 c 0,-15.789 -7.43,-23.211 -23.2,-26.922 z m 75.16,294.371 c 0,11.637 13.07,13.035 25.21,13.035 50.87,0 80.48,-38.168 80.48,-80.988 0,-44.215 -46.88,-73.074 -89.82,-73.074 -5.6,0 -11.2,0.933 -18.2,1.398 l 2.33,139.629" /><path
         id="path20"
         style="fill:#1b387b;fill-opacity:1;fill-rule:nonzero;stroke:none"
         d="m 1706.81,559.688 17.4,0.214 c 12.53,-35.273 41.31,-49.187 76.21,-49.187 31.64,0 70.48,25.496 70.48,57.957 0,97.836 -168.55,37.558 -168.55,163.219 0,59.812 52.46,93.988 107.37,93.988 30.25,0 67.42,-11.051 82.74,-21.27 l 4.64,-49.629 -16.91,0.047 c -7.43,30.633 -39.91,51.516 -70,51.516 -34.9,0 -62.82,-23.184 -62.82,-58.891 0,-81.605 178.55,-34.312 178.55,-155.332 0,-61.668 -69.67,-100.941 -128.76,-100.941 -31.18,0 -62.79,3.68 -90.35,18.047 v 50.262" /><path
         id="path22"
         style="fill:#1b387b;fill-opacity:1;fill-rule:nonzero;stroke:none"
         d="m 2217.09,760.566 h -17.4 c -4.67,27.368 -18.65,35.723 -45.25,35.723 h -58.77 c 0,-39.902 -2.33,-90.934 -2.33,-146.605 v -98.825 c 0,-28.761 8.87,-37.566 29.38,-44.062 v -10.215 c -18.19,0 -35.87,1.836 -53.49,1.836 -17.63,0 -35.26,-1.836 -53.32,-1.836 v 10.215 c 21.32,6.953 27.81,17.156 27.81,44.062 v 72.84 c 0,66.809 -3.71,132.688 -4.64,172.59 h -62.57 c -26.4,0 -40.31,-8.355 -44.95,-35.723 h -17.4 v 65.586 c 17.4,-4.64 35.48,-7.422 53.56,-7.422 h 205.38 c 13.06,0 33.45,2.782 43.99,7.149 v -65.313" /><path
         id="path24"
         style="fill:#1b387b;fill-opacity:1;fill-rule:nonzero;stroke:none"
         d="m 2609.93,105.461 17.41,0.215 c 12.52,-35.2776 41.3,-49.1916 76.2,-49.1916 31.65,0 70.48,25.5078 70.48,57.9566 0,97.844 -168.54,37.563 -168.54,163.227 0,59.801 52.46,93.98 107.36,93.98 30.26,0 67.42,-11.05 82.75,-21.265 l 4.63,-49.629 -16.91,0.047 c -7.42,30.625 -39.91,51.512 -70,51.512 -34.89,0 -62.82,-23.18 -62.82,-58.883 0,-81.614 178.55,-34.321 178.55,-155.332 0,-61.6722 -69.66,-100.9496 -128.76,-100.9496 -31.18,0 -62.78,3.6797 -90.35,18.0469 v 50.2657" /><path
         id="path26"
         style="fill:#1b387b;fill-opacity:1;fill-rule:nonzero;stroke:none"
         d="m 2853.68,105.461 17.41,0.215 c 12.52,-35.2776 41.3,-49.1916 76.2,-49.1916 31.65,0 70.48,25.5078 70.48,57.9566 0,97.844 -168.54,37.563 -168.54,163.227 0,59.801 52.46,93.98 107.36,93.98 30.26,0 67.42,-11.05 82.75,-21.265 l 4.63,-49.629 -16.91,0.047 c -7.42,30.625 -39.91,51.512 -70,51.512 -34.89,0 -62.82,-23.18 -62.82,-58.883 0,-81.614 178.55,-34.321 178.55,-155.332 0,-61.6722 -69.67,-100.9496 -128.76,-100.9496 -31.18,0 -62.78,3.6797 -90.35,18.0469 v 50.2657" /><path
         id="path28"
         style="fill:#1b387b;fill-opacity:1;fill-rule:nonzero;stroke:none"
         d="m 1312.61,358.586 h -21.3 c -5.61,33.125 -22.43,43.23 -54.39,43.23 h -70.65 c 0,-48.281 -2.8,-110.019 -2.8,-177.382 V 104.883 c 0,-34.8049 10.65,-45.4689 35.32,-53.3283 V 39.1406 c -21.87,0 -43.18,2.3828 -64.51,2.3828 -21.33,0 -42.68,-2.3828 -64.59,-2.3828 v 12.4141 c 25.85,8.4141 33.72,20.7695 33.72,53.3283 v 88.125 c 0,80.832 -4.5,160.527 -5.63,208.808 h -75.86 c -32.025,0 -48.889,-10.105 -54.506,-43.23 h -21.301 v 79.148 c 21.301,-5.605 43.215,-8.984 65.137,-8.984 h 248.1 c 15.7,0 40.37,3.379 53.26,8.77 v -78.934" /><path
         id="path30"
         style="fill:#1b387b;fill-opacity:1;fill-rule:nonzero;stroke:none"
         d="m 1336.86,51.6094 c 18.17,1.8672 27.03,13.0586 27.03,28.4492 v 78.8364 c 0,63.441 -3.73,130.148 -3.73,171.66 0,11.664 -8.86,19.59 -23.3,22.394 v 9.973 h 183.95 c 12.55,0 28.29,4.656 36.6,7.566 0,-12.121 -1.87,-23.308 -1.87,-34.961 0,-11.648 1.87,-22.832 1.87,-34.668 h -17.54 c -7.92,22.371 -19.11,39.618 -44.74,39.618 h -81.24 V 216.941 h 70.27 c 26.99,0 35.83,2.325 47,25.079 h 14.91 c 0,-13.465 -1.75,-26.942 -1.75,-40.497 0,-14.003 1.75,-27.519 1.76,-41.015 h -15.85 c -10.24,32.129 -19.08,33.996 -46.07,33.996 h -70.27 V 64.082 H 1493 c 34.44,0 47.02,5.586 67.99,34.9414 l 14.45,-7.4609 -16.31,-57.375 c -14.45,5.5977 -28.9,7.4531 -43.79,7.4531 h -178.48 v 9.9688" /><path
         id="path32"
         style="fill:#1b387b;fill-opacity:1;fill-rule:nonzero;stroke:none"
         d="m 1603.16,49.7266 c 18.17,4.6679 28.9,18.6523 28.9,44.7656 l 1.4,275.9958 h 19.65 L 1880.7,119.852 v 160.382 c 0,57.813 -12.57,71.329 -34.96,74.602 v 10.008 c 15.39,0 30.77,-1.867 46.12,-1.867 15.32,0 31.17,1.867 46.55,1.875 v -10.016 c -20.51,-3.742 -30.76,-20.063 -30.76,-57.824 l -1.39,-262.9417 h -15.79 l -231.28,252.1797 1.87,-177.742 c 0.46,-36.3791 11.64,-53.176 33.97,-58.7814 V 39.707 c -15.36,0 -30.71,1.8868 -46.13,1.8868 -15.44,0 -30.36,-1.8868 -45.74,-1.8868 v 10.0196" /><path
         id="path34"
         style="fill:#1b387b;fill-opacity:1;fill-rule:nonzero;stroke:none"
         d="m 1965.78,49.7266 c 18.18,4.6679 28.9,18.6523 28.9,44.7656 l 1.41,275.9958 h 19.64 l 227.61,-250.636 v 160.382 c 0,57.813 -12.59,71.329 -34.96,74.602 v 10.008 c 15.38,0 30.76,-1.867 46.1,-1.867 15.32,0 31.17,1.867 46.56,1.875 v -10.016 c -20.51,-3.742 -30.77,-20.063 -30.77,-57.824 l -1.38,-262.9417 h -15.79 l -231.28,252.1797 1.86,-177.742 c 0.48,-36.3791 11.64,-53.176 33.98,-58.7814 V 39.707 c -15.36,0 -30.72,1.8868 -46.14,1.8868 -15.43,0 -30.35,-1.8868 -45.74,-1.8868 v 10.0196" /><path
         id="path36"
         style="fill:#1b387b;fill-opacity:1;fill-rule:nonzero;stroke:none"
         d="m 2329.65,51.6094 c 18.18,1.8672 27.03,13.0586 27.03,28.4492 v 78.8364 c 0,63.441 -3.72,130.148 -3.72,171.66 0,11.664 -8.86,19.59 -23.31,22.394 v 9.973 h 183.95 c 12.55,0 28.29,4.656 36.61,7.566 0,-12.121 -1.87,-23.308 -1.87,-34.961 0,-11.648 1.87,-22.832 1.88,-34.668 h -17.55 c -7.92,22.371 -19.12,39.618 -44.75,39.618 h -81.23 V 216.941 h 70.26 c 27,0 35.84,2.325 47.01,25.079 h 14.91 c 0,-13.465 -1.76,-26.942 -1.76,-40.497 0,-14.003 1.76,-27.519 1.76,-41.015 h -15.85 c -10.23,32.129 -19.07,33.996 -46.07,33.996 h -70.26 V 64.082 h 79.11 c 34.43,0 47.01,5.586 67.99,34.9414 l 14.44,-7.4609 -16.31,-57.375 c -14.45,5.5977 -28.9,7.4531 -43.79,7.4531 h -178.48 v 9.9688" /><path
         id="path38"
         style="fill:#1b387b;fill-opacity:1;fill-rule:nonzero;stroke:none"
         d="m 3097.77,51.6094 c 18.19,1.8672 27.03,13.0586 27.03,28.4492 v 78.8364 c 0,63.441 -3.73,130.148 -3.73,171.66 0,11.664 -8.84,19.59 -23.3,22.394 v 9.973 h 183.96 c 12.55,0 28.29,4.656 36.6,7.566 0,-12.121 -1.87,-23.308 -1.87,-34.961 0,-11.648 1.87,-22.832 1.87,-34.668 h -17.54 c -7.92,22.371 -19.11,39.618 -44.75,39.618 H 3174.8 V 216.941 h 70.28 c 26.99,0 35.83,2.325 47,25.079 h 14.91 c 0,-13.465 -1.76,-26.942 -1.76,-40.497 0,-14.003 1.76,-27.519 1.76,-41.015 h -15.85 c -10.23,32.129 -19.07,33.996 -46.06,33.996 H 3174.8 V 64.082 h 79.13 c 34.42,0 47.01,5.586 67.98,34.9414 l 14.45,-7.4609 -16.31,-57.375 c -14.45,5.5977 -28.91,7.4531 -43.79,7.4531 h -178.49 v 9.9688" /><path
         id="path40"
         style="fill:#1b387b;fill-opacity:1;fill-rule:nonzero;stroke:none"
         d="m 3365.31,51.6094 c 18.19,1.8672 27.04,13.0586 27.04,28.4492 v 78.8364 c 0,63.441 -3.74,130.148 -3.74,171.66 0,11.664 -8.84,19.59 -23.3,22.394 v 9.973 h 183.96 c 12.55,0 28.29,4.656 36.6,7.566 0,-12.121 -1.88,-23.308 -1.88,-34.961 0,-11.648 1.88,-22.832 1.88,-34.668 h -17.54 c -7.92,22.371 -19.11,39.618 -44.75,39.618 h -81.23 V 216.941 h 70.27 c 26.98,0 35.83,2.325 47,25.079 h 14.91 c 0,-13.465 -1.76,-26.942 -1.76,-40.497 0,-14.003 1.76,-27.519 1.76,-41.015 h -15.85 c -10.23,32.129 -19.08,33.996 -46.06,33.996 h -70.27 V 64.082 h 79.11 c 34.43,0 47.02,5.586 67.99,34.9414 l 14.45,-7.4609 -16.31,-57.375 c -14.45,5.5977 -28.91,7.4531 -43.79,7.4531 h -178.49 v 9.9688" /><path
         id="path42"
         style="fill:#ffffff;fill-opacity:1;fill-rule:nonzero;stroke:none"
         d="m 883.398,108.293 c 0,-38.8672 -31.492,-69.6914 -70.359,-69.6914 H 109.406 c -38.8669,0 -70.7966,30.8242 -70.7966,69.6914 v 706.199 c 0,38.863 31.9297,69.289 70.7966,69.289 H 883.398 V 108.293" /><path
         id="path44"
         style="fill:#ed192d;fill-opacity:1;fill-rule:nonzero;stroke:none"
         d="m 883.398,784.18 v 99.601 H 109.406 c -38.8669,0 -70.7966,-30.426 -70.7966,-69.289 V 332.129 C 251.633,568.086 547.852,732.77 883.398,784.18" /><path
         id="path46"
         style="fill:#1b387b;fill-opacity:1;fill-rule:evenodd;stroke:none"
         d="M 38.6094,38.6016 H 813.039 c 38.867,0 70.359,31.9257 70.359,70.7854 V 743.934 C 523.305,647.051 221.227,416.746 38.6094,111.965 v -1.106 c 0,-38.8668 0,-72.2574 0,-72.2574" /><path
         id="path48"
         style="fill:#ffffff;fill-opacity:1;fill-rule:nonzero;stroke:none"
         d="M 426.051,467.207 635.23,422.723 878.781,549.629 799.145,360.273 883.398,309.16 V 244.473 L 698.109,192.512 577.031,38.6016 H 533.996 L 471.75,151.289 223.969,131.672 l 208.902,161.891 -6.82,173.644" /><path
         id="path50"
         style="fill:#1b387b;fill-opacity:1;fill-rule:nonzero;stroke:none"
         d="M 3660.5,86.5703 V 52.5117 h 5.78 v 13.4336 h 4.8 c 3.23,0 5.49,-0.3711 6.78,-1.0937 2.17,-1.2657 3.26,-3.8828 3.26,-7.8321 v -2.6953 l 0.12,-1.0937 c 0.04,-0.1563 0.06,-0.2696 0.08,-0.3867 0.04,-0.1211 0.06,-0.2149 0.1,-0.3321 h 5.64 l -0.23,0.4102 c -0.14,0.2929 -0.26,0.8789 -0.32,1.7734 -0.05,0.918 -0.07,1.7578 -0.07,2.5391 v 2.5 c 0,1.7187 -0.61,3.4961 -1.84,5.2929 -1.21,1.7969 -3.13,2.9102 -5.76,3.3399 2.11,0.332 3.73,0.8984 4.9,1.6445 2.21,1.4414 3.32,3.668 3.32,6.7149 0,4.2812 -1.78,7.1523 -5.29,8.6172 -1.99,0.8164 -5.1,1.2265 -9.34,1.2265 z m 20.78,-10.3906 c 0,-2.5938 -1.21,-4.3555 -3.61,-5.2734 -1.29,-0.4844 -3.25,-0.7383 -5.84,-0.7383 h -5.55 v 12.1836 h 5.23 c 3.42,0 5.9,-0.4258 7.45,-1.25 1.54,-0.836 2.32,-2.4805 2.32,-4.9219 z m 22.81,-6.7774 c 0,8.5586 -3.05,15.8633 -9.1,21.875 -6.05,6.0352 -13.38,9.0427 -21.99,9.0427 -8.54,0 -15.82,-3.0075 -21.86,-9.0427 -6.05,-6.0546 -9.08,-13.3398 -9.08,-21.875 0,-8.6093 2.99,-15.9335 9,-21.9921 6.04,-6.0938 13.34,-9.1172 21.94,-9.1172 8.61,0 15.94,3.0234 21.99,9.1172 6.05,6.0742 9.1,13.4179 9.1,21.9921 z m -31.03,26.6993 c 7.42,0 13.75,-2.6172 18.98,-7.8477 5.22,-5.2187 7.83,-11.5078 7.83,-18.8906 0,-7.4375 -2.61,-13.7656 -7.83,-19.0039 -5.21,-5.2305 -11.54,-7.8477 -18.98,-7.8477 -7.46,0 -13.79,2.6172 -19.01,7.8477 -5.19,5.2383 -7.77,11.5664 -7.77,19.0039 0,7.3828 2.6,13.6719 7.81,18.8906 5.24,5.2305 11.56,7.8477 18.97,7.8477" /></g></g></svg>